<svg width="391" height="80" viewBox="0 0 391 80" fill="none" xmlns="http://www.w3.org/2000/svg">
<path d="M389 60.4852V60.2694C389 55.2772 387.036 52.0252 383.77 49.5614C380.365 46.9928 375.517 45.2658 369.753 43.6503L369.738 43.6464L369.722 43.6415C366.706 42.742 364.151 41.9661 362.367 41.0966C360.66 40.265 358.803 38.932 358.803 36.5497V36.3339C358.803 34.7501 359.639 33.4475 360.94 32.6317C362.167 31.8623 363.77 31.5311 365.548 31.5311C370.164 31.5312 376.27 33.3387 381.988 36.2274L387.147 26.7059C381.022 23.2079 373.27 21.1913 365.764 21.1913C359.34 21.1913 353.965 22.8376 350.244 25.7635C346.577 28.6465 344.361 32.8834 344.361 38.4901V38.7059C344.361 43.9412 346.348 47.2641 349.591 49.7108C352.77 52.1082 357.214 53.7061 362.504 55.1385L363.574 55.4237L363.591 55.4276L363.608 55.4325C366.618 56.2773 369.152 56.9979 370.915 57.826C372.625 58.6299 374.451 59.936 374.451 62.3182V62.5341C374.451 64.192 373.736 65.6454 372.25 66.5653C370.929 67.3823 369.187 67.66 367.274 67.66C361.317 67.66 354.338 65.625 347.856 61.7401L342.259 70.8036C349.657 75.6452 358.346 77.9998 367.166 77.9999V79.9999C357.658 79.9998 348.252 77.3695 340.32 71.912L339.557 71.3749L347.214 58.9755C353.692 63.2578 360.776 65.5162 366.704 65.6532L367.274 65.66C370.722 65.66 372.348 64.6483 372.446 62.7225L372.451 62.5341V62.3182C372.451 60.0541 369.215 59.0833 363.068 57.3583C351.528 54.3394 342.361 50.458 342.361 38.7059V38.4901C342.361 26.0914 352.283 19.1913 365.764 19.1913L366.564 19.1981C374.835 19.3477 383.337 21.8055 389.814 25.9833L382.803 38.9218C376.953 35.684 370.596 33.6604 365.989 33.537L365.548 33.5311C362.421 33.5311 360.803 34.7168 360.803 36.3339V36.5497L360.813 36.7587C361.015 38.882 364.338 39.9489 370.293 41.7245C381.833 44.959 391 48.9487 391 60.2694V60.4852L390.993 61.0819C390.699 73.5225 381.179 79.9999 367.166 79.9999V77.9999C374.002 77.9999 379.473 76.3909 383.188 73.4794C386.836 70.6203 389 66.3477 389 60.4852Z" fill="url(#paint0_linear_8_26)"/>
<path d="M337.473 49.4883V49.2725C337.473 31.5371 326.219 21.084 313.59 21.084C305.689 21.084 301.239 24.8002 297.447 29.4102L293.903 33.7207V2H277.412V76.7061H293.903V66.168L297.424 70.292C300.946 74.4173 305.611 77.9999 313.697 78V80L312.879 79.9883C304.532 79.75 299.56 75.8721 295.903 71.5898V78.7061H275.412V0H295.903V28.1406C299.894 23.2889 304.854 19.084 313.59 19.084L314.24 19.0918C327.873 19.4455 339.473 30.9115 339.473 49.2725V49.4883L339.464 50.3721C339.098 68.8214 327.286 80 313.697 80V78C326.199 78 337.472 67.5677 337.473 49.4883ZM319.306 49.3799C319.306 41.8447 314.185 36.399 307.647 36.2305L307.335 36.2266C300.756 36.2266 295.472 41.725 295.472 49.3799V49.5957L295.476 49.958C295.635 57.4089 300.694 62.6878 307.027 62.8535L307.335 62.8574C313.917 62.8573 319.14 57.6334 319.302 49.9629L319.306 49.5957V49.3799ZM321.306 49.5957C321.306 58.4213 315.27 64.8573 307.335 64.8574C299.486 64.8574 293.472 58.2901 293.472 49.5957V49.3799C293.472 40.7821 299.497 34.2266 307.335 34.2266C315.27 34.2267 321.306 40.7699 321.306 49.3799V49.5957Z" fill="url(#paint1_linear_8_26)"/>
<path d="M268.38 45.1748C268.38 37.2632 266.613 31.8509 262.729 28.0626L262.711 28.045C258.59 23.9254 252.08 21.5148 241.908 21.5148C233.013 21.5148 226.611 22.9937 220.72 25.2355L223.811 35.8565C228.424 34.2089 232.942 33.2559 238.565 33.2559C242.753 33.256 246.201 34.1678 248.627 36.2032C251.114 38.2901 252.213 41.2893 252.213 44.7442V48.5459L249.544 47.5987C246.413 46.488 241.354 45.4502 236.192 45.4502C229.614 45.4503 224.383 46.9563 220.843 49.6729C217.376 52.3336 215.329 56.3055 215.329 61.7783V61.9941C215.329 67.2898 217.246 71.2197 220.286 73.8515C223.363 76.515 227.769 77.9999 232.957 77.9999V79.9999L232.438 79.995C221.585 79.7996 213.329 73.4564 213.329 61.9941V61.7783C213.329 49.7032 222.496 43.4503 236.192 43.4502L237.202 43.462C242.238 43.5848 247.079 44.6021 250.213 45.7139V44.7442C250.213 38.8951 246.67 35.4737 239.291 35.2657L238.565 35.2559C232.418 35.2559 227.673 36.4418 222.496 38.4903L218.29 24.0431C224.869 21.3477 231.879 19.5148 241.908 19.5148C252.369 19.5148 259.488 21.9949 264.125 26.631C268.547 30.9436 270.38 36.981 270.38 45.1748V78.706H250.104V72.6679C246.114 77.0884 240.614 79.9999 232.957 79.9999V77.9999C240.029 77.9999 244.996 75.3426 248.62 71.3281L252.104 67.4677V76.706H268.38V45.1748ZM250.429 57.5742V54.8789C248.508 54.0703 245.828 53.4512 243.013 53.377L242.447 53.3692C236.516 53.3693 233.065 56.2802 233.065 60.5928V60.8086L233.074 61.1777C233.249 64.8222 236.028 67.0249 239.9 67.1631L240.291 67.1699C246.037 67.1698 250.164 63.6279 250.416 58.1133L250.429 57.5742ZM252.429 57.5742C252.429 60.9908 251.181 63.9368 248.947 66.0185C246.728 68.0868 243.68 69.1698 240.291 69.1699C237.827 69.1699 235.525 68.4736 233.804 67.0068C232.047 65.5098 231.065 63.3486 231.065 60.8086V60.5928C231.065 57.8517 232.187 55.4567 234.293 53.794C236.35 52.17 239.178 51.3692 242.447 51.3692C245.723 51.3692 248.9 52.0653 251.204 53.0352L252.429 53.5508V57.5742Z" fill="url(#paint2_linear_8_26)"/>
<path d="M169.893 5.2345H152.971V76.7062H206.453V62.3771H169.893V5.2345ZM208.453 60.3771V78.7062H150.971V3.2345H171.893V60.3771H208.453Z" fill="url(#paint3_linear_8_26)"/>
<path d="M82.3944 46.9009L95.5516 3.23498H117.229L91.993 79.2456H73.7675L58.5605 35.7955L43.4618 79.2456H25.2363L0 3.23498H22.1084L35.2656 46.9009L49.8251 3.01917H67.8358L82.3944 46.9009ZM35.1738 53.5278L20.622 5.23498H2.77148L26.6787 77.2456H42.04L58.5536 29.7213L75.1864 77.2456H90.5497L114.458 5.23498H97.0379L82.4862 53.5278L66.3925 5.01916H51.2685L35.1738 53.5278Z" fill="url(#paint4_linear_8_26)"/>
<defs>
<linearGradient id="paint0_linear_8_26" x1="0" y1="40.0795" x2="391.775" y2="40.0795" gradientUnits="userSpaceOnUse">
<stop stop-color="#2376E9"/>
<stop offset="1" stop-color="#02C7D0"/>
</linearGradient>
<linearGradient id="paint1_linear_8_26" x1="0" y1="40.0795" x2="391.775" y2="40.0795" gradientUnits="userSpaceOnUse">
<stop stop-color="#2376E9"/>
<stop offset="1" stop-color="#02C7D0"/>
</linearGradient>
<linearGradient id="paint2_linear_8_26" x1="0" y1="40.0795" x2="391.775" y2="40.0795" gradientUnits="userSpaceOnUse">
<stop stop-color="#2376E9"/>
<stop offset="1" stop-color="#02C7D0"/>
</linearGradient>
<linearGradient id="paint3_linear_8_26" x1="0" y1="40.0795" x2="391.775" y2="40.0795" gradientUnits="userSpaceOnUse">
<stop stop-color="#2376E9"/>
<stop offset="1" stop-color="#02C7D0"/>
</linearGradient>
<linearGradient id="paint4_linear_8_26" x1="0" y1="40.0795" x2="391.775" y2="40.0795" gradientUnits="userSpaceOnUse">
<stop stop-color="#2376E9"/>
<stop offset="1" stop-color="#02C7D0"/>
</linearGradient>
</defs>
</svg>
