<svg width="264" height="64" viewBox="0 0 264 64" fill="none" xmlns="http://www.w3.org/2000/svg">
<path d="M1.61514 22.1073C5.653 9.38802 17.7666 0.100952 31.8991 0.100952C45.0221 0.100952 56.3281 7.97477 61.1735 19.2808C60.5678 19.0789 60.164 18.877 59.5584 18.6751C51.0789 15.4448 48.0505 21.5016 43.6088 29.7792C42.3975 32 40.9842 34.6246 39.3691 37.653C39.1672 37.8549 39.1672 38.0568 38.9653 38.2587C38.9653 37.4511 38.9653 36.6435 38.9653 36.0379C38.9653 33.2114 38.7634 30.183 38.5615 27.3565C38.1577 24.3281 37.7539 20.4921 34.7256 20.0883C31.4953 19.6845 30.2839 22.511 26.8517 31.1924C25.6404 34.0189 24.429 37.2492 22.8139 40.8833C22.2082 42.0946 21.8044 42.9022 21.6025 43.5079C20.5931 40.6814 19.7855 34.6246 19.7855 29.7792C19.7855 24.7319 19.1798 18.877 15.3438 17.0599C12.5174 16.0505 9.69085 16.858 6.66246 19.4827C4.44164 21.5016 2.8265 22.1073 1.61514 22.1073ZM63.3943 26.7508C62.5868 26.5489 61.7792 26.1451 60.9716 25.7413C59.9622 25.3375 58.7508 24.9338 57.3375 24.3281C54.3092 23.1167 53.7035 23.3186 49.0599 32.6057C47.8486 35.0284 46.4353 37.653 44.6183 40.6814C42.1956 45.123 39.7729 48.5552 36.5426 47.7476C33.1104 46.9401 33.1104 42.9022 32.9085 36.2398C32.9085 35.0284 32.9085 33.817 32.9085 32.4038C32.7066 32.8076 32.7066 33.2114 32.5047 33.4133C31.2934 36.2398 30.082 39.6719 28.4669 43.306C27.4574 45.5268 25.2366 50.776 21.4006 50.776C21.1987 50.776 20.795 50.776 20.3912 50.776C13.7287 49.3628 13.5268 32 13.5268 29.9811C13.5268 25.1357 12.9211 23.3186 12.5174 22.9148C12.1136 23.1167 11.5079 23.3186 10.4984 24.3281C6.25868 27.9621 2.8265 28.7697 0.201893 28.3659C0 29.5773 0 30.7886 0 32C0 49.5647 14.3344 63.8991 31.8991 63.8991C49.4637 63.8991 63.7981 49.5647 63.7981 32C64 30.183 63.7981 28.3659 63.3943 26.7508Z" fill="#64748B"/>
<path d="M91.8309 50.24L80.5989 16.4H90.4389L96.2949 35.84L102.775 16.304H110.791L117.271 35.84L123.127 16.4H132.775L121.543 50.24H113.431L106.663 30.896L99.9429 50.24H91.8309ZM149.792 50V16.4H159.104V41.84H175.376V50H149.792ZM186.283 50.576C181.339 50.576 177.547 47.744 177.547 42.56V42.464C177.547 37.088 181.627 34.304 187.723 34.304C190.123 34.304 192.475 34.784 193.963 35.312V34.88C193.963 32.192 192.283 30.656 188.779 30.656C186.043 30.656 183.931 31.184 181.627 32.096L179.755 25.664C182.683 24.464 185.803 23.648 190.267 23.648C194.923 23.648 198.091 24.752 200.155 26.816C202.123 28.736 202.939 31.424 202.939 35.072V50H193.915V47.312C192.139 49.28 189.691 50.576 186.283 50.576ZM189.547 44.864C192.187 44.864 194.059 43.184 194.059 40.592V39.392C193.147 39.008 191.851 38.72 190.507 38.72C187.867 38.72 186.331 40.016 186.331 41.936V42.032C186.331 43.808 187.675 44.864 189.547 44.864ZM222.217 50.576C218.281 50.576 215.977 48.8 214.297 46.832V50H205.177V14.96H214.297V27.488C216.073 25.328 218.281 23.456 222.169 23.456C228.361 23.456 233.689 28.592 233.689 36.896V36.992C233.689 45.44 228.361 50.576 222.217 50.576ZM219.385 42.944C222.361 42.944 224.713 40.544 224.713 37.04V36.944C224.713 33.536 222.361 31.088 219.385 31.088C216.457 31.088 214.105 33.536 214.105 36.944V37.04C214.105 40.496 216.457 42.944 219.385 42.944ZM246.014 50.576C241.646 50.576 237.326 49.328 233.726 46.736L237.134 41.216C240.11 43.184 243.374 44.192 246.062 44.192C247.646 44.192 248.366 43.712 248.366 42.8V42.704C248.366 41.696 246.926 41.264 244.19 40.496C239.054 39.152 234.974 37.424 234.974 32.192V32.096C234.974 26.576 239.39 23.504 245.39 23.504C249.182 23.504 253.118 24.608 256.094 26.528L252.974 32.288C250.286 30.8 247.358 29.888 245.294 29.888C243.902 29.888 243.182 30.416 243.182 31.136V31.232C243.182 32.24 244.67 32.72 247.406 33.536C252.542 34.976 256.622 36.752 256.622 41.792V41.888C256.622 47.6 252.35 50.576 246.014 50.576Z" fill="#64748B"/>
</svg>
