<svg width="256" height="38" viewBox="0 0 256 38" fill="none" xmlns="http://www.w3.org/2000/svg">
<g clip-path="url(#clip0_935_24687)">
<path d="M70.3898 7.94107H76.41L71.0845 30.0537H63.3277L60.4334 13.9613H60.086L57.1917 30.0537H49.4349L44.1094 7.94107H50.3611L53.2554 23.9177H53.6028L56.4971 7.94107H64.1381L67.0324 23.9177H67.2639L70.3898 7.94107ZM84.8614 13.9613C84.8614 12.9193 85.9034 12.2247 87.2927 12.2247C88.9135 12.2247 90.0712 12.9193 90.5343 14.4243L96.6703 13.2666C95.5125 9.44612 92.1551 7.59375 87.2927 7.59375C81.6198 7.59375 78.3781 10.3723 78.3781 13.9613C78.3781 23.1073 90.7658 20.0972 90.7658 23.802C90.7658 24.9597 89.7239 25.6543 87.8715 25.6543C86.1349 25.6543 84.6299 24.9597 83.9352 23.1073L77.9151 24.265C78.957 28.4329 83.2406 30.2852 87.8715 30.2852C94.0075 30.2852 97.1334 27.5067 97.1334 23.9177C97.2491 14.6559 84.8614 17.666 84.8614 13.9613ZM121.446 18.9395C121.446 25.7701 117.278 30.2852 110.331 30.2852C103.385 30.2852 99.2173 25.6543 99.2173 18.9395C99.2173 12.2247 103.385 7.59375 110.331 7.59375C117.278 7.59375 121.446 12.2247 121.446 18.9395ZM115.078 18.9395C115.078 15.0032 113.226 12.8035 110.331 12.8035C107.437 12.8035 105.585 15.119 105.585 18.9395C105.585 22.8758 107.437 25.0755 110.331 25.0755C113.226 25.1912 115.078 22.8758 115.078 18.9395ZM124.572 30.0537H130.939V21.718H140.548V17.0871H130.823V12.9193H141.474V7.94107H124.572V30.0537ZM143.095 13.4982H149.694V30.0537H156.062V13.4982H162.661V7.94107H143.211V13.4982H143.095ZM178.753 7.94107H172.386V30.0537H188.478V24.4966H178.637V7.94107H178.753ZM205.265 7.94107L212.559 30.0537H205.96L204.802 26.1174H197.277L196.119 30.0537H189.636L196.93 7.94107H205.265ZM203.413 21.3707L201.097 13.1508H200.75L198.435 21.3707H203.413ZM233.861 23.9177C233.861 27.7382 231.546 29.9379 225.641 29.9379H214.874V7.94107H225.178C230.041 7.94107 232.935 9.79343 232.935 13.8455C232.935 16.2767 231.777 17.8975 230.041 18.7079V19.0553C232.356 19.6341 233.861 21.2549 233.861 23.9177ZM221.126 16.8556H224.368C225.873 16.8556 226.683 16.0452 226.683 14.6559C226.683 13.2666 225.757 12.4562 224.368 12.4562H221.126V16.8556ZM227.494 23.1073C227.494 21.6023 226.452 20.7919 224.947 20.7919H221.126V25.4228H224.947C226.567 25.4228 227.494 24.6124 227.494 23.1073ZM243.123 13.9613C243.123 12.9193 244.165 12.2247 245.554 12.2247C247.175 12.2247 248.333 12.9193 248.796 14.4243L254.932 13.2666C253.89 9.33034 250.417 7.59375 245.554 7.59375C239.881 7.59375 236.64 10.3723 236.64 13.9613C236.64 23.1073 249.027 20.0972 249.027 23.802C249.027 24.9597 247.985 25.6543 246.133 25.6543C244.396 25.6543 242.891 24.9597 242.197 23.1073L236.177 24.265C237.219 28.4329 241.502 30.2852 246.133 30.2852C252.269 30.2852 255.395 27.5067 255.395 23.9177C255.395 14.6559 243.123 17.666 243.123 13.9613Z" fill="#0B1552"/>
<path d="M0.926183 13.2677C3.24164 5.97399 10.188 0.648438 18.2921 0.648438C25.8174 0.648438 32.3006 5.16358 35.0792 11.6469C34.7319 11.5311 34.5003 11.4153 34.153 11.2995C29.2905 9.44718 27.5539 12.9204 25.0069 17.6671C24.3123 18.9406 23.5019 20.4456 22.5757 22.1822C22.4599 22.298 22.4599 22.4137 22.3442 22.5295C22.3442 22.0664 22.3442 21.6033 22.3442 21.256C22.3442 19.6352 22.2284 17.8986 22.1126 16.2778C21.8811 14.5412 21.6495 12.3415 19.9129 12.11C18.0606 11.8784 17.3659 13.4992 15.3978 18.4775C14.7032 20.0983 14.0085 21.9506 13.0823 24.0346C12.735 24.7292 12.5035 25.1923 12.3877 25.5396C11.8088 23.9188 11.3457 20.4456 11.3457 17.6671C11.3457 14.7727 10.9984 11.4153 8.79874 10.3734C7.17792 9.79449 5.5571 10.2576 3.8205 11.7626C2.547 12.9204 1.62082 13.2677 0.926183 13.2677ZM36.3527 15.9305C35.8896 15.8147 35.4265 15.5831 34.9634 15.3516C34.3845 15.12 33.6899 14.8885 32.8795 14.5412C31.1429 13.8465 30.7956 13.9623 28.1328 19.2879C27.4382 20.6771 26.6278 22.1822 25.5858 23.9188C24.1965 26.4658 22.8073 28.4339 20.9549 27.9708C18.9868 27.5077 18.9867 25.1923 18.871 21.3718C18.871 20.6771 18.871 19.9825 18.871 19.1721C18.7552 19.4036 18.7552 19.6352 18.6394 19.751C17.9448 21.3718 17.2502 23.3399 16.324 25.4238C15.7451 26.6973 14.4716 29.7074 12.2719 29.7074C12.1562 29.7074 11.9246 29.7074 11.6931 29.7074C7.87256 28.897 7.75678 18.9406 7.75678 17.7828C7.75678 15.0043 7.40946 13.9623 7.17792 13.7308C6.94637 13.8465 6.59905 13.9623 6.02019 14.5412C3.58896 16.6251 1.62082 17.0882 0.115773 16.8566C0 17.5513 0 18.2459 0 18.9406C0 29.0128 8.21987 37.2327 18.2921 37.2327C28.3644 37.2327 36.5842 29.0128 36.5842 18.9406C36.7 17.8986 36.5842 16.8566 36.3527 15.9305Z" fill="url(#paint0_linear_935_24687)"/>
</g>
<defs>
<linearGradient id="paint0_linear_935_24687" x1="0" y1="18.9769" x2="36.6567" y2="18.9769" gradientUnits="userSpaceOnUse">
<stop stop-color="#2376E9"/>
<stop offset="1" stop-color="#02C7D0"/>
</linearGradient>
<clipPath id="clip0_935_24687">
<rect width="255.395" height="36.7" fill="white" transform="translate(0 0.648438)"/>
</clipPath>
</defs>
</svg>
