<svg width="583" height="83" viewBox="0 0 583 83" fill="none" xmlns="http://www.w3.org/2000/svg">
<mask id="path-1-outside-1_771_24364" maskUnits="userSpaceOnUse" x="0" y="0" width="583" height="83" fill="black">
<rect fill="white" width="583" height="83"/>
<path d="M103.416 10.5686L86.3779 80H62.6432L53.0902 37.4548L43.3403 80H19.6056L2.76476 10.5686H23.6434L31.7191 58.038L42.6509 10.5686H63.825L74.4613 57.6441L82.537 10.5686H103.416ZM156.654 80.6894C148.578 80.6894 141.947 78.7854 136.76 74.9773C131.573 71.1036 128.783 65.5885 128.389 58.4319H148.972C149.169 60.8612 149.892 62.6339 151.139 63.7501C152.386 64.8662 153.995 65.4243 155.965 65.4243C157.737 65.4243 159.182 64.9976 160.298 64.144C161.48 63.2248 162.071 61.9774 162.071 60.4016C162.071 58.3663 161.119 56.7905 159.215 55.6744C157.311 54.5582 154.225 53.3108 149.957 51.932C145.427 50.4219 141.75 48.9775 138.927 47.5987C136.169 46.1542 133.74 44.0861 131.639 41.3942C129.604 38.6366 128.586 35.0583 128.586 30.6594C128.586 26.1948 129.702 22.3867 131.935 19.2352C134.167 16.018 137.253 13.5888 141.192 11.9474C145.131 10.306 149.596 9.48526 154.586 9.48526C162.662 9.48526 169.096 11.3893 173.889 15.1973C178.747 18.9397 181.341 24.2251 181.669 31.0533H160.692C160.626 28.9523 159.97 27.3766 158.722 26.3261C157.54 25.2756 155.998 24.7503 154.094 24.7503C152.649 24.7503 151.467 25.1771 150.548 26.0306C149.629 26.8841 149.169 28.0988 149.169 29.6745C149.169 30.9877 149.662 32.1366 150.647 33.1215C151.697 34.0407 152.977 34.8614 154.487 35.5836C155.998 36.2402 158.23 37.0937 161.184 38.1442C165.583 39.6543 169.194 41.1644 172.018 42.6745C174.907 44.1189 177.369 46.1871 179.404 48.879C181.505 51.5052 182.556 54.8537 182.556 58.9244C182.556 63.0607 181.505 66.7703 179.404 70.0531C177.369 73.3359 174.381 75.9293 170.442 77.8333C166.568 79.7374 161.972 80.6894 156.654 80.6894ZM217.234 80.6894C211.718 80.6894 206.761 79.5404 202.362 77.2424C198.029 74.9445 194.615 71.6617 192.12 67.394C189.625 63.1264 188.378 58.1037 188.378 52.3259C188.378 46.6138 189.625 41.624 192.12 37.3563C194.681 33.0887 198.128 29.8058 202.461 27.5079C206.86 25.2099 211.817 24.0609 217.332 24.0609C222.847 24.0609 227.771 25.2099 232.105 27.5079C236.504 29.8058 239.951 33.0887 242.445 37.3563C245.006 41.624 246.286 46.6138 246.286 52.3259C246.286 58.038 245.006 63.0607 242.445 67.394C239.951 71.6617 236.504 74.9445 232.105 77.2424C227.706 79.5404 222.749 80.6894 217.234 80.6894ZM217.234 63.9471C219.925 63.9471 222.158 62.9622 223.93 60.9925C225.769 58.9572 226.688 56.0683 226.688 52.3259C226.688 48.5835 225.769 45.7275 223.93 43.7578C222.158 41.7881 219.958 40.8033 217.332 40.8033C214.706 40.8033 212.506 41.7881 210.734 43.7578C208.961 45.7275 208.074 48.5835 208.074 52.3259C208.074 56.134 208.928 59.0228 210.635 60.9925C212.342 62.9622 214.542 63.9471 217.234 63.9471ZM283.98 40.8033H275.314V80H255.912V40.8033H249.905V24.7503H255.912V24.2579C255.912 17.167 257.981 11.7504 262.117 8.00799C266.319 4.19993 272.326 2.2959 280.14 2.2959C281.715 2.2959 282.93 2.32873 283.783 2.39439V18.8413C283.258 18.7756 282.536 18.7428 281.617 18.7428C279.516 18.7428 277.973 19.2352 276.988 20.22C276.003 21.1392 275.445 22.6493 275.314 24.7503H283.98V40.8033ZM323.477 63.5531V80H315.106C300.99 80 293.932 73.0076 293.932 59.0228V40.8033H287.137V24.7503H293.932V11.3565H313.333V24.7503H323.379V40.8033H313.333V59.3183C313.333 60.8284 313.662 61.9117 314.318 62.5683C315.04 63.2248 316.222 63.5531 317.864 63.5531H323.477ZM370.484 65.2274H392.052V80H351.181V10.5686H370.484V65.2274ZM396.406 52.3259C396.406 46.6138 397.424 41.624 399.459 37.3563C401.56 33.0887 404.384 29.8058 407.929 27.5079C411.54 25.2099 415.545 24.0609 419.944 24.0609C423.752 24.0609 427.035 24.816 429.793 26.3261C432.55 27.8362 434.684 29.8715 436.194 32.4321V24.7503H455.497V80H436.194V72.3182C434.684 74.8788 432.517 76.9142 429.694 78.4243C426.937 79.9343 423.687 80.6894 419.944 80.6894C415.545 80.6894 411.54 79.5404 407.929 77.2424C404.384 74.9445 401.56 71.6617 399.459 67.394C397.424 63.0607 396.406 58.038 396.406 52.3259ZM436.194 52.3259C436.194 48.7805 435.209 45.9901 433.24 43.9548C431.336 41.9194 428.972 40.9017 426.149 40.9017C423.26 40.9017 420.863 41.9194 418.959 43.9548C417.055 45.9244 416.103 48.7148 416.103 52.3259C416.103 55.8714 417.055 58.6946 418.959 60.7956C420.863 62.8309 423.26 63.8486 426.149 63.8486C428.972 63.8486 431.336 62.8309 433.24 60.7956C435.209 58.7602 436.194 55.937 436.194 52.3259ZM485.799 32.4321C487.309 29.8058 489.443 27.7705 492.201 26.3261C494.958 24.816 498.208 24.0609 501.951 24.0609C506.35 24.0609 510.322 25.2099 513.867 27.5079C517.478 29.8058 520.302 33.0887 522.337 37.3563C524.438 41.624 525.489 46.6138 525.489 52.3259C525.489 58.038 524.438 63.0607 522.337 67.394C520.302 71.6617 517.478 74.9445 513.867 77.2424C510.322 79.5404 506.35 80.6894 501.951 80.6894C498.208 80.6894 494.958 79.9672 492.201 78.5227C489.443 77.0126 487.309 74.9445 485.799 72.3182V80H466.496V7.12163H485.799V32.4321ZM505.89 52.3259C505.89 48.7148 504.905 45.9244 502.936 43.9548C501.032 41.9194 498.668 40.9017 495.845 40.9017C493.022 40.9017 490.625 41.9194 488.655 43.9548C486.751 45.9901 485.799 48.7805 485.799 52.3259C485.799 55.937 486.751 58.7602 488.655 60.7956C490.625 62.8309 493.022 63.8486 495.845 63.8486C498.668 63.8486 501.032 62.8309 502.936 60.7956C504.905 58.6946 505.89 55.8714 505.89 52.3259ZM556.973 80.6894C551.983 80.6894 547.518 79.8687 543.579 78.2273C539.705 76.5202 536.619 74.2223 534.321 71.3334C532.089 68.3789 530.842 65.0632 530.579 61.3865H549.291C549.554 63.1592 550.374 64.538 551.753 65.5228C553.132 66.5077 554.839 67.0001 556.874 67.0001C558.45 67.0001 559.697 66.6718 560.617 66.0152C561.536 65.3587 561.995 64.5051 561.995 63.4546C561.995 62.0759 561.24 61.0582 559.73 60.4016C558.22 59.7451 555.725 59.0228 552.245 58.235C548.306 57.4471 545.023 56.5607 542.397 55.5759C539.771 54.5911 537.473 52.9825 535.503 50.7502C533.599 48.5179 532.647 45.4977 532.647 41.6896C532.647 38.4068 533.533 35.4523 535.306 32.826C537.079 30.1341 539.672 28.0003 543.086 26.4246C546.566 24.8488 550.735 24.0609 555.594 24.0609C562.816 24.0609 568.495 25.8336 572.632 29.3791C576.768 32.9245 579.164 37.5861 579.821 43.3638H562.389C562.061 41.5911 561.273 40.2452 560.026 39.326C558.844 38.3411 557.235 37.8487 555.2 37.8487C553.624 37.8487 552.41 38.1442 551.556 38.7351C550.768 39.326 550.374 40.1467 550.374 41.1972C550.374 42.5103 551.129 43.528 552.639 44.2502C554.149 44.9068 556.579 45.5962 559.927 46.3184C563.932 47.1719 567.248 48.1239 569.874 49.1744C572.566 50.2249 574.897 51.932 576.866 54.2956C578.902 56.5936 579.919 59.7451 579.919 63.7501C579.919 66.9672 578.967 69.8561 577.063 72.4167C575.225 74.9773 572.566 77.0126 569.086 78.5227C565.672 79.9672 561.634 80.6894 556.973 80.6894Z"/>
</mask>
<path d="M103.416 10.5686L105.358 11.0452L105.966 8.56858H103.416V10.5686ZM86.3779 80V82H87.9465L88.3203 80.4766L86.3779 80ZM62.6432 80L60.6918 80.4382L61.0425 82H62.6432V80ZM53.0902 37.4548L55.0416 37.0166L51.1408 37.008L53.0902 37.4548ZM43.3403 80V82H44.9338L45.2897 80.4468L43.3403 80ZM19.6056 80L17.6619 80.4714L18.0327 82H19.6056V80ZM2.76476 10.5686V8.56858H0.22166L0.821115 11.04L2.76476 10.5686ZM23.6434 10.5686L25.6151 10.2332L25.3319 8.56858H23.6434V10.5686ZM31.7191 58.038L29.7475 58.3734L33.6681 58.4868L31.7191 58.038ZM42.6509 10.5686V8.56858H41.0591L40.7019 10.1197L42.6509 10.5686ZM63.825 10.5686L65.7758 10.1278L65.4235 8.56858H63.825V10.5686ZM74.4613 57.6441L72.5105 58.0848L76.4325 57.9822L74.4613 57.6441ZM82.537 10.5686V8.56858H80.8509L80.5658 10.2304L82.537 10.5686ZM101.473 10.0919L84.4355 79.5234L88.3203 80.4766L105.358 11.0452L101.473 10.0919ZM86.3779 78H62.6432V82H86.3779V78ZM64.5946 79.5618L55.0416 37.0166L51.1388 37.893L60.6918 80.4382L64.5946 79.5618ZM51.1408 37.008L41.3908 79.5532L45.2897 80.4468L55.0397 37.9015L51.1408 37.008ZM43.3403 78H19.6056V82H43.3403V78ZM21.5492 79.5286L4.7084 10.0971L0.821115 11.04L17.6619 80.4714L21.5492 79.5286ZM2.76476 12.5686H23.6434V8.56858H2.76476V12.5686ZM21.6718 10.904L29.7475 58.3734L33.6908 57.7026L25.6151 10.2332L21.6718 10.904ZM33.6681 58.4868L44.5999 11.0174L40.7019 10.1197L29.7701 57.5892L33.6681 58.4868ZM42.6509 12.5686H63.825V8.56858H42.6509V12.5686ZM61.8742 11.0094L72.5105 58.0848L76.4121 57.2033L65.7758 10.1278L61.8742 11.0094ZM76.4325 57.9822L84.5082 10.9067L80.5658 10.2304L72.4901 57.3059L76.4325 57.9822ZM82.537 12.5686H103.416V8.56858H82.537V12.5686ZM136.76 74.9773L135.564 76.5797L135.57 76.5846L135.577 76.5895L136.76 74.9773ZM128.389 58.4319V56.4319H126.276L126.392 58.5419L128.389 58.4319ZM148.972 58.4319L150.966 58.2703L150.817 56.4319H148.972V58.4319ZM151.139 63.7501L149.805 65.2406H149.805L151.139 63.7501ZM160.298 64.144L161.513 65.7327L161.519 65.7278L161.526 65.7227L160.298 64.144ZM159.215 55.6744L160.226 53.949L159.215 55.6744ZM149.957 51.932L149.325 53.8293L149.334 53.8323L149.342 53.8351L149.957 51.932ZM138.927 47.5987L137.999 49.3703L138.024 49.3834L138.049 49.3958L138.927 47.5987ZM131.639 41.3942L130.03 42.5819L130.046 42.6035L130.062 42.6247L131.639 41.3942ZM131.935 19.2352L133.567 20.3912L133.572 20.3833L133.578 20.3754L131.935 19.2352ZM141.192 11.9474L140.423 10.1012H140.423L141.192 11.9474ZM173.889 15.1973L172.645 16.7633L172.657 16.7726L172.668 16.7818L173.889 15.1973ZM181.669 31.0533V33.0533H183.768L183.667 30.9573L181.669 31.0533ZM160.692 31.0533L158.693 31.1158L158.754 33.0533H160.692V31.0533ZM158.722 26.3261L157.394 27.8209L157.414 27.8387L157.434 27.8559L158.722 26.3261ZM150.548 26.0306L151.909 27.4962L150.548 26.0306ZM150.647 33.1215L149.232 34.5357L149.279 34.5828L149.33 34.6266L150.647 33.1215ZM154.487 35.5836L153.625 37.3879L153.657 37.4034L153.69 37.4177L154.487 35.5836ZM161.184 38.1442L160.514 40.0286L160.525 40.0323L160.535 40.0358L161.184 38.1442ZM172.018 42.6745L171.074 44.438L171.099 44.451L171.123 44.4633L172.018 42.6745ZM179.404 48.879L177.809 50.0852L177.825 50.107L177.842 50.1284L179.404 48.879ZM179.404 70.0531L177.719 68.975L177.712 68.987L177.704 68.9992L179.404 70.0531ZM170.442 77.8333L169.572 76.0326L169.56 76.0385L170.442 77.8333ZM156.654 78.6894C148.894 78.6894 142.709 76.8632 137.944 73.3651L135.577 76.5895C141.186 80.7075 148.262 82.6894 156.654 82.6894V78.6894ZM137.957 73.3749C133.299 69.8964 130.751 64.9587 130.386 58.322L126.392 58.5419C126.815 66.2183 129.848 72.3108 135.564 76.5797L137.957 73.3749ZM128.389 60.4319H148.972V56.4319H128.389V60.4319ZM146.979 58.5936C147.199 61.3027 148.032 63.654 149.805 65.2406L152.473 62.2596C151.751 61.6139 151.14 60.4197 150.966 58.2703L146.979 58.5936ZM149.805 65.2406C151.483 66.7415 153.595 67.4243 155.965 67.4243V63.4243C154.395 63.4243 153.29 62.991 152.473 62.2596L149.805 65.2406ZM155.965 67.4243C158.06 67.4243 159.966 66.9161 161.513 65.7327L159.083 62.5553C158.398 63.079 157.415 63.4243 155.965 63.4243V67.4243ZM161.526 65.7227C163.224 64.4021 164.071 62.557 164.071 60.4016H160.071C160.071 61.3978 159.736 62.0475 159.07 62.5653L161.526 65.7227ZM164.071 60.4016C164.071 57.5867 162.68 55.3873 160.226 53.949L158.203 57.3998C159.558 58.1937 160.071 59.1459 160.071 60.4016H164.071ZM160.226 53.949C158.125 52.7175 154.867 51.4164 150.572 50.0288L149.342 53.8351C153.583 55.2051 156.496 56.399 158.203 57.3998L160.226 53.949ZM150.59 50.0346C146.105 48.5397 142.519 47.1271 139.805 45.8015L138.049 49.3958C140.981 50.8278 144.749 52.3041 149.325 53.8293L150.59 50.0346ZM139.855 45.827C137.373 44.5271 135.159 42.653 133.216 40.1636L130.062 42.6247C132.322 45.5191 134.966 47.7814 137.999 49.3703L139.855 45.827ZM133.248 40.2065C131.531 37.8793 130.586 34.7525 130.586 30.6594H126.586C126.586 35.3641 127.677 39.3939 130.03 42.5819L133.248 40.2065ZM130.586 30.6594C130.586 26.5421 131.61 23.1541 133.567 20.3912L130.303 18.0792C127.795 21.6193 126.586 25.8474 126.586 30.6594H130.586ZM133.578 20.3754C135.573 17.5003 138.342 15.3017 141.961 13.7935L140.423 10.1012C136.164 11.8759 132.761 14.5358 130.291 18.095L133.578 20.3754ZM141.961 13.7935C145.619 12.2694 149.816 11.4853 154.586 11.4853V7.48526C149.376 7.48526 144.644 8.34256 140.423 10.1012L141.961 13.7935ZM154.586 11.4853C162.355 11.4853 168.304 13.3148 172.645 16.7633L175.133 13.6314C169.888 9.46381 162.969 7.48526 154.586 7.48526V11.4853ZM172.668 16.7818C177.005 20.1224 179.368 24.8317 179.671 31.1494L183.667 30.9573C183.314 23.6185 180.49 17.7571 175.109 13.6129L172.668 16.7818ZM181.669 29.0533H160.692V33.0533H181.669V29.0533ZM162.691 30.9908C162.613 28.4965 161.81 26.3118 160.011 24.7962L157.434 27.8559C158.129 28.4413 158.64 29.4081 158.693 31.1158L162.691 30.9908ZM160.051 24.8312C158.432 23.3917 156.382 22.7503 154.094 22.7503V26.7503C155.613 26.7503 156.649 27.1594 157.394 27.8209L160.051 24.8312ZM154.094 22.7503C152.226 22.7503 150.532 23.316 149.187 24.565L151.909 27.4962C152.402 27.0382 153.072 26.7503 154.094 26.7503V22.7503ZM149.187 24.565C147.761 25.8893 147.169 27.6947 147.169 29.6745H151.169C151.169 28.5029 151.497 27.879 151.909 27.4962L149.187 24.565ZM147.169 29.6745C147.169 31.5528 147.898 33.201 149.232 34.5357L152.061 31.7073C151.426 31.0723 151.169 30.4226 151.169 29.6745H147.169ZM149.33 34.6266C150.541 35.6868 151.982 36.6022 153.625 37.3879L155.35 33.7793C153.973 33.1206 152.853 32.3946 151.964 31.6163L149.33 34.6266ZM153.69 37.4177C155.264 38.1021 157.548 38.9738 160.514 40.0286L161.854 36.2598C158.912 35.2135 156.731 34.3782 155.285 33.7494L153.69 37.4177ZM160.535 40.0358C164.874 41.5252 168.377 42.9954 171.074 44.438L172.961 40.9109C170.012 39.3333 166.293 37.7833 161.834 36.2525L160.535 40.0358ZM171.123 44.4633C173.724 45.7638 175.95 47.6275 177.809 50.0852L180.999 47.6728C178.787 44.7466 176.089 42.4739 172.912 40.8856L171.123 44.4633ZM177.842 50.1284C179.603 52.3299 180.556 55.2091 180.556 58.9244H184.556C184.556 54.4983 183.407 50.6806 180.966 47.6296L177.842 50.1284ZM180.556 58.9244C180.556 62.7031 179.602 66.0341 177.719 68.975L181.089 71.1312C183.408 67.5065 184.556 63.4183 184.556 58.9244H180.556ZM177.704 68.9992C175.895 71.9181 173.216 74.2713 169.572 76.0326L171.312 79.634C175.547 77.5874 178.843 74.7537 181.104 71.107L177.704 68.9992ZM169.56 76.0385C166.017 77.7799 161.736 78.6894 156.654 78.6894V82.6894C162.209 82.6894 167.12 81.6949 171.324 79.6282L169.56 76.0385ZM202.362 77.2424L201.425 79.0094L201.436 79.0151L202.362 77.2424ZM192.12 67.394L193.847 66.3846L192.12 67.394ZM192.12 37.3563L190.405 36.3273L190.399 36.3371L190.393 36.3469L192.12 37.3563ZM202.461 27.5079L201.535 25.7351L201.524 25.741L202.461 27.5079ZM232.105 27.5079L231.168 29.2748L231.179 29.2806L232.105 27.5079ZM242.445 37.3563L240.719 38.3657L240.725 38.3755L240.73 38.3853L242.445 37.3563ZM242.445 67.394L240.724 66.3765L240.719 66.3846L242.445 67.394ZM232.105 77.2424L231.179 75.4697L232.105 77.2424ZM223.93 60.9925L222.446 59.652L222.444 59.6546L223.93 60.9925ZM223.93 43.7578L222.444 45.0957L222.456 45.1092L222.468 45.1224L223.93 43.7578ZM210.635 60.9925L209.124 62.3024L210.635 60.9925ZM217.234 78.6894C212.004 78.6894 207.371 77.6024 203.288 75.4697L201.436 79.0151C206.152 81.4784 211.432 82.6894 217.234 82.6894V78.6894ZM203.299 75.4755C199.297 73.3532 196.155 70.3339 193.847 66.3846L190.393 68.4034C193.074 72.9894 196.761 76.5358 201.425 79.0094L203.299 75.4755ZM193.847 66.3846C191.559 62.4715 190.378 57.8094 190.378 52.3259H186.378C186.378 58.3979 187.691 63.7812 190.393 68.4034L193.847 66.3846ZM190.378 52.3259C190.378 46.9127 191.557 42.2822 193.847 38.3657L190.393 36.3469C187.693 40.9657 186.378 46.315 186.378 52.3259H190.378ZM193.835 38.3853C196.211 34.425 199.391 31.3996 203.398 29.2748L201.524 25.741C196.864 28.2121 193.15 31.7523 190.405 36.3273L193.835 38.3853ZM203.387 29.2806C207.469 27.1479 212.103 26.0609 217.332 26.0609V22.0609C211.531 22.0609 206.25 23.2719 201.535 25.7352L203.387 29.2806ZM217.332 26.0609C222.562 26.0609 227.157 27.1481 231.168 29.2748L233.042 25.741C228.385 23.2717 223.133 22.0609 217.332 22.0609V26.0609ZM231.179 29.2806C235.246 31.4052 238.415 34.424 240.719 38.3657L244.172 36.3469C241.487 31.7533 237.762 28.2065 233.031 25.7352L231.179 29.2806ZM240.73 38.3853C243.078 42.2985 244.286 46.9218 244.286 52.3259H248.286C248.286 46.3059 246.934 40.9494 244.16 36.3273L240.73 38.3853ZM244.286 52.3259C244.286 57.7293 243.079 62.3912 240.724 66.3766L244.167 68.4115C246.934 63.7302 248.286 58.3467 248.286 52.3259H244.286ZM240.719 66.3846C238.415 70.3263 235.246 73.3452 231.179 75.4697L233.031 79.0151C237.762 76.5438 241.487 72.9971 244.172 68.4034L240.719 66.3846ZM231.179 75.4697C227.096 77.6024 222.463 78.6894 217.234 78.6894V82.6894C223.035 82.6894 228.315 81.4784 233.031 79.0151L231.179 75.4697ZM217.234 65.9471C220.482 65.9471 223.258 64.7291 225.417 62.3305L222.444 59.6546C221.057 61.1953 219.369 61.9471 217.234 61.9471V65.9471ZM225.415 62.3331C227.69 59.8143 228.688 56.3814 228.688 52.3259H224.688C224.688 55.7552 223.848 58.1001 222.446 59.652L225.415 62.3331ZM228.688 52.3259C228.688 48.2755 227.692 44.8565 225.393 42.3932L222.468 45.1224C223.846 46.5985 224.688 48.8916 224.688 52.3259H228.688ZM225.417 42.4199C223.269 40.0331 220.531 38.8033 217.332 38.8033V42.8033C219.385 42.8033 221.047 43.5431 222.444 45.0957L225.417 42.4199ZM217.332 38.8033C214.133 38.8033 211.395 40.0331 209.247 42.4199L212.22 45.0957C213.617 43.5431 215.279 42.8033 217.332 42.8033V38.8033ZM209.247 42.4199C207.029 44.8839 206.074 48.2923 206.074 52.3259H210.074C210.074 48.8747 210.892 46.5711 212.22 45.0957L209.247 42.4199ZM206.074 52.3259C206.074 56.3982 206.984 59.8332 209.124 62.3024L212.146 59.6827C210.872 58.2125 210.074 55.8698 210.074 52.3259H206.074ZM209.124 62.3024C211.225 64.7266 213.983 65.9471 217.234 65.9471V61.9471C215.1 61.9471 213.46 61.1979 212.146 59.6827L209.124 62.3024ZM283.98 40.8033V42.8033H285.98V40.8033H283.98ZM275.314 40.8033V38.8033H273.314V40.8033H275.314ZM275.314 80V82H277.314V80H275.314ZM255.912 80H253.912V82H255.912V80ZM255.912 40.8033H257.912V38.8033H255.912V40.8033ZM249.905 40.8033H247.905V42.8033H249.905V40.8033ZM249.905 24.7503V22.7503H247.905V24.7503H249.905ZM255.912 24.7503V26.7503H257.912V24.7503H255.912ZM262.117 8.008L263.459 9.49107L263.46 9.48997L262.117 8.008ZM283.783 2.39439H285.783V0.542322L283.937 0.400276L283.783 2.39439ZM283.783 18.8413L283.535 20.8258L285.783 21.1068V18.8413H283.783ZM276.988 20.22L278.353 21.6822L278.378 21.6586L278.402 21.6343L276.988 20.22ZM275.314 24.7503L273.318 24.6256L273.185 26.7503H275.314V24.7503ZM283.98 24.7503H285.98V22.7503H283.98V24.7503ZM283.98 38.8033H275.314V42.8033H283.98V38.8033ZM273.314 40.8033V80H277.314V40.8033H273.314ZM275.314 78H255.912V82H275.314V78ZM257.912 80V40.8033H253.912V80H257.912ZM255.912 38.8033H249.905V42.8033H255.912V38.8033ZM251.905 40.8033V24.7503H247.905V40.8033H251.905ZM249.905 26.7503H255.912V22.7503H249.905V26.7503ZM257.912 24.7503V24.2579H253.912V24.7503H257.912ZM257.912 24.2579C257.912 17.5686 259.849 12.7569 263.459 9.49107L260.775 6.52492C256.112 10.7439 253.912 16.7655 253.912 24.2579H257.912ZM263.46 9.48997C267.175 6.12337 272.634 4.2959 280.14 4.2959V0.295902C272.019 0.295902 265.463 2.2765 260.774 6.52602L263.46 9.48997ZM280.14 4.2959C281.699 4.2959 282.853 4.32875 283.63 4.3885L283.937 0.400276C283.007 0.328714 281.732 0.295902 280.14 0.295902V4.2959ZM281.783 2.39439V18.8413H285.783V2.39439H281.783ZM284.032 16.8567C283.386 16.776 282.568 16.7428 281.617 16.7428V20.7428C282.504 20.7428 283.131 20.7752 283.535 20.8258L284.032 16.8567ZM281.617 16.7428C279.251 16.7428 277.087 17.2924 275.574 18.8058L278.402 21.6343C278.859 21.178 279.78 20.7428 281.617 20.7428V16.7428ZM275.623 18.7579C274.102 20.1776 273.464 22.2911 273.318 24.6256L277.31 24.8751C277.427 23.0075 277.904 22.1008 278.353 21.6822L275.623 18.7579ZM275.314 26.7503H283.98V22.7503H275.314V26.7503ZM281.98 24.7503V40.8033H285.98V24.7503H281.98ZM323.477 63.5531H325.477V61.5531H323.477V63.5531ZM323.477 80V82H325.477V80H323.477ZM293.932 40.8033H295.932V38.8033H293.932V40.8033ZM287.137 40.8033H285.137V42.8033H287.137V40.8033ZM287.137 24.7503V22.7503H285.137V24.7503H287.137ZM293.932 24.7503V26.7503H295.932V24.7503H293.932ZM293.932 11.3565V9.35646H291.932V11.3565H293.932ZM313.333 11.3565H315.333V9.35646H313.333V11.3565ZM313.333 24.7503H311.333V26.7503H313.333V24.7503ZM323.379 24.7503H325.379V22.7503H323.379V24.7503ZM323.379 40.8033V42.8033H325.379V40.8033H323.379ZM313.333 40.8033V38.8033H311.333V40.8033H313.333ZM314.318 62.5683L312.904 63.9825L312.938 64.0162L312.973 64.0482L314.318 62.5683ZM321.477 63.5531V80H325.477V63.5531H321.477ZM323.477 78H315.106V82H323.477V78ZM315.106 78C308.352 78 303.654 76.3278 300.633 73.3349C297.616 70.3454 295.932 65.7022 295.932 59.0229H291.932C291.932 66.3283 293.777 72.1737 297.818 76.1765C301.855 80.176 307.744 82 315.106 82V78ZM295.932 59.0229V40.8033H291.932V59.0229H295.932ZM293.932 38.8033H287.137V42.8033H293.932V38.8033ZM289.137 40.8033V24.7503H285.137V40.8033H289.137ZM287.137 26.7503H293.932V22.7503H287.137V26.7503ZM295.932 24.7503V11.3565H291.932V24.7503H295.932ZM293.932 13.3565H313.333V9.35646H293.932V13.3565ZM311.333 11.3565V24.7503H315.333V11.3565H311.333ZM313.333 26.7503H323.379V22.7503H313.333V26.7503ZM321.379 24.7503V40.8033H325.379V24.7503H321.379ZM323.379 38.8033H313.333V42.8033H323.379V38.8033ZM311.333 40.8033V59.3183H315.333V40.8033H311.333ZM311.333 59.3183C311.333 61.0413 311.696 62.7741 312.904 63.9825L315.732 61.1541C315.628 61.0494 315.333 60.6155 315.333 59.3183H311.333ZM312.973 64.0482C314.244 65.2036 316.04 65.5531 317.864 65.5531V61.5531C316.405 61.5531 315.837 61.246 315.664 61.0884L312.973 64.0482ZM317.864 65.5531H323.477V61.5531H317.864V65.5531ZM370.484 65.2274H368.484V67.2274H370.484V65.2274ZM392.052 65.2274H394.052V63.2274H392.052V65.2274ZM392.052 80V82H394.052V80H392.052ZM351.181 80H349.181V82H351.181V80ZM351.181 10.5686V8.56858H349.181V10.5686H351.181ZM370.484 10.5686H372.484V8.56858H370.484V10.5686ZM370.484 67.2274H392.052V63.2274H370.484V67.2274ZM390.052 65.2274V80H394.052V65.2274H390.052ZM392.052 78H351.181V82H392.052V78ZM353.181 80V10.5686H349.181V80H353.181ZM351.181 12.5686H370.484V8.56858H351.181V12.5686ZM368.484 10.5686V65.2274H372.484V10.5686H368.484ZM399.459 37.3563L397.665 36.4729L397.66 36.4841L397.654 36.4954L399.459 37.3563ZM407.929 27.5079L406.855 25.8206L406.848 25.825L406.841 25.8296L407.929 27.5079ZM429.793 26.3261L428.832 28.0803L429.793 26.3261ZM436.194 32.4321L434.471 33.4481L438.194 39.7605V32.4321H436.194ZM436.194 24.7503V22.7503H434.194V24.7503H436.194ZM455.497 24.7503H457.497V22.7503H455.497V24.7503ZM455.497 80V82H457.497V80H455.497ZM436.194 80H434.194V82H436.194V80ZM436.194 72.3182H438.194V64.9898L434.471 71.3023L436.194 72.3182ZM429.694 78.4242L428.751 76.6607L428.742 76.6653L428.733 76.6701L429.694 78.4242ZM407.929 77.2424L406.841 78.9207L406.848 78.9253L406.855 78.9298L407.929 77.2424ZM399.459 67.394L397.649 68.2443L397.657 68.2609L397.665 68.2774L399.459 67.394ZM433.24 43.9548L431.779 45.3211L431.791 45.3334L431.802 45.3456L433.24 43.9548ZM418.959 43.9548L420.397 45.3448L420.409 45.333L420.42 45.3211L418.959 43.9548ZM418.959 60.7956L417.477 62.1386L417.488 62.1503L417.499 62.1619L418.959 60.7956ZM433.24 60.7956L431.802 59.4047L431.791 59.4169L431.779 59.4293L433.24 60.7956ZM398.406 52.3259C398.406 46.8507 399.381 42.1659 401.265 38.2173L397.654 36.4954C395.467 41.082 394.406 46.377 394.406 52.3259H398.406ZM401.254 38.2397C403.216 34.2542 405.811 31.264 409.017 29.1862L406.841 25.8296C402.956 28.3477 399.905 31.9231 397.665 36.4729L401.254 38.2397ZM409.003 29.1952C412.284 27.1073 415.914 26.0609 419.944 26.0609V22.0609C415.176 22.0609 410.797 23.3125 406.855 25.8206L409.003 29.1952ZM419.944 26.0609C423.487 26.0609 426.425 26.7622 428.832 28.0803L430.753 24.5719C427.645 22.8697 424.018 22.0609 419.944 22.0609V26.0609ZM428.832 28.0803C431.293 29.4278 433.155 31.2158 434.471 33.4481L437.917 31.4161C436.213 28.5272 433.808 26.2446 430.753 24.5719L428.832 28.0803ZM438.194 32.4321V24.7503H434.194V32.4321H438.194ZM436.194 26.7503H455.497V22.7503H436.194V26.7503ZM453.497 24.7503V80H457.497V24.7503H453.497ZM455.497 78H436.194V82H455.497V78ZM438.194 80V72.3182H434.194V80H438.194ZM434.471 71.3023C433.162 73.5225 431.276 75.3098 428.751 76.6607L430.637 80.1878C433.758 78.5186 436.206 76.2351 437.917 73.3342L434.471 71.3023ZM428.733 76.6701C426.322 77.9908 423.415 78.6894 419.944 78.6894V82.6894C423.958 82.6894 427.551 81.8779 430.655 80.1784L428.733 76.6701ZM419.944 78.6894C415.914 78.6894 412.284 77.643 409.003 75.5551L406.855 78.9298C410.797 81.4378 415.176 82.6894 419.944 82.6894V78.6894ZM409.017 75.5641C405.811 73.4864 403.216 70.4961 401.254 66.5106L397.665 68.2774C399.905 72.8272 402.956 76.4026 406.841 78.9207L409.017 75.5641ZM401.27 66.5437C399.381 62.5229 398.406 57.8001 398.406 52.3259H394.406C394.406 58.2759 395.467 63.5985 397.649 68.2443L401.27 66.5437ZM438.194 52.3259C438.194 48.3987 437.093 45.0605 434.677 42.5639L431.802 45.3456C433.326 46.9197 434.194 49.1623 434.194 52.3259H438.194ZM434.7 42.5884C432.412 40.1429 429.517 38.9017 426.149 38.9017V42.9017C428.426 42.9017 430.259 43.6959 431.779 45.3211L434.7 42.5884ZM426.149 38.9017C422.729 38.9017 419.796 40.1325 417.499 42.5884L420.42 45.3211C421.93 43.7063 423.791 42.9017 426.149 42.9017V38.9017ZM417.521 42.5647C415.154 45.0141 414.103 48.3664 414.103 52.3259H418.103C418.103 49.0632 418.957 46.8348 420.397 45.3448L417.521 42.5647ZM414.103 52.3259C414.103 56.2384 415.162 59.584 417.477 62.1386L420.441 59.4525C418.948 57.8052 418.103 55.5043 418.103 52.3259H414.103ZM417.499 62.1619C419.796 64.6178 422.729 65.8486 426.149 65.8486V61.8486C423.791 61.8486 421.93 61.044 420.42 59.4293L417.499 62.1619ZM426.149 65.8486C429.517 65.8486 432.412 64.6074 434.7 62.1619L431.779 59.4293C430.259 61.0544 428.426 61.8486 426.149 61.8486V65.8486ZM434.677 62.1864C437.099 59.6832 438.194 56.3071 438.194 52.3259H434.194C434.194 55.5669 433.319 57.8373 431.802 59.4047L434.677 62.1864ZM485.799 32.4321H483.799V39.9226L487.533 33.429L485.799 32.4321ZM492.201 26.3261L493.129 28.0977L493.145 28.0891L493.161 28.0803L492.201 26.3261ZM513.867 27.5079L512.78 29.1862L512.787 29.1907L512.794 29.1952L513.867 27.5079ZM522.337 37.3563L520.532 38.2173L520.537 38.2285L520.543 38.2397L522.337 37.3563ZM522.337 67.394L520.537 66.5214L520.532 66.5331L522.337 67.394ZM513.867 77.2424L512.794 75.5551L512.787 75.5596L512.78 75.5641L513.867 77.2424ZM492.201 78.5227L491.24 80.2769L491.256 80.2858L491.273 80.2944L492.201 78.5227ZM485.799 72.3182L487.533 71.3213L483.799 64.8277V72.3182H485.799ZM485.799 80V82H487.799V80H485.799ZM466.496 80H464.496V82H466.496V80ZM466.496 7.12164V5.12164H464.496V7.12164H466.496ZM485.799 7.12164H487.799V5.12164H485.799V7.12164ZM502.936 43.9548L501.475 45.3211L501.498 45.3454L501.521 45.369L502.936 43.9548ZM488.655 43.9548L487.218 42.5639L487.206 42.5761L487.195 42.5884L488.655 43.9548ZM488.655 60.7956L487.195 62.1619L487.206 62.1742L487.218 62.1864L488.655 60.7956ZM502.936 60.7956L501.477 59.4277L501.475 59.4293L502.936 60.7956ZM487.533 33.429C488.848 31.1418 490.698 29.3709 493.129 28.0977L491.273 24.5544C488.188 26.1701 485.771 28.4699 484.066 31.4352L487.533 33.429ZM493.161 28.0803C495.573 26.7596 498.48 26.0609 501.951 26.0609V22.0609C497.936 22.0609 494.344 22.8724 491.24 24.5719L493.161 28.0803ZM501.951 26.0609C505.98 26.0609 509.572 27.1071 512.78 29.1862L514.955 25.8296C511.072 23.3127 506.719 22.0609 501.951 22.0609V26.0609ZM512.794 29.1952C516.056 31.271 518.641 34.2516 520.532 38.2173L524.142 36.4954C521.963 31.9257 518.901 28.3407 514.941 25.8206L512.794 29.1952ZM520.543 38.2397C522.484 42.1827 523.489 46.8593 523.489 52.3259H527.489C527.489 46.3683 526.392 41.0652 524.131 36.4729L520.543 38.2397ZM523.489 52.3259C523.489 57.7915 522.484 62.5062 520.537 66.5215L524.137 68.2666C526.392 63.6152 527.489 58.2845 527.489 52.3259H523.489ZM520.532 66.5331C518.641 70.4987 516.056 73.4793 512.794 75.5551L514.941 78.9298C518.901 76.4097 521.963 72.8246 524.142 68.255L520.532 66.5331ZM512.78 75.5641C509.572 77.6432 505.98 78.6894 501.951 78.6894V82.6894C506.719 82.6894 511.072 81.4376 514.955 78.9207L512.78 75.5641ZM501.951 78.6894C498.467 78.6894 495.548 78.0181 493.129 76.7511L491.273 80.2944C494.369 81.9163 497.95 82.6894 501.951 82.6894V78.6894ZM493.161 76.7685C490.714 75.428 488.853 73.6165 487.533 71.3213L484.066 73.3152C485.766 76.2725 488.173 78.5973 491.24 80.2769L493.161 76.7685ZM483.799 72.3182V80H487.799V72.3182H483.799ZM485.799 78H466.496V82H485.799V78ZM468.496 80V7.12164H464.496V80H468.496ZM466.496 9.12164H485.799V5.12164H466.496V9.12164ZM483.799 7.12164V32.4321H487.799V7.12164H483.799ZM507.89 52.3259C507.89 48.3484 506.797 44.9872 504.35 42.5405L501.521 45.369C503.014 46.8617 503.89 49.0812 503.89 52.3259H507.89ZM504.396 42.5884C502.108 40.1429 499.213 38.9017 495.845 38.9017V42.9017C498.123 42.9017 499.955 43.6959 501.475 45.3211L504.396 42.5884ZM495.845 38.9017C492.478 38.9017 489.563 40.1407 487.218 42.5639L490.093 45.3456C491.687 43.6982 493.565 42.9017 495.845 42.9017V38.9017ZM487.195 42.5884C484.857 45.0873 483.799 48.4166 483.799 52.3259H487.799C487.799 49.1444 488.646 46.8929 490.116 45.3211L487.195 42.5884ZM483.799 52.3259C483.799 56.2894 484.851 59.6565 487.195 62.1619L490.116 59.4293C488.652 57.8639 487.799 55.5846 487.799 52.3259H483.799ZM487.218 62.1864C489.563 64.6097 492.478 65.8486 495.845 65.8486V61.8486C493.565 61.8486 491.687 61.0522 490.093 59.4047L487.218 62.1864ZM495.845 65.8486C499.213 65.8486 502.108 64.6074 504.396 62.1619L501.475 59.4293C499.955 61.0544 498.123 61.8486 495.845 61.8486V65.8486ZM504.395 62.1634C506.788 59.6106 507.89 56.256 507.89 52.3259H503.89C503.89 55.4867 503.023 57.7786 501.477 59.4277L504.395 62.1634ZM543.579 78.2273L542.772 80.0575L542.791 80.0656L542.81 80.0734L543.579 78.2273ZM534.321 71.3334L532.726 72.539L532.741 72.5589L532.756 72.5784L534.321 71.3334ZM530.579 61.3865V59.3865H528.431L528.584 61.529L530.579 61.3865ZM549.291 61.3865L551.269 61.0934L551.016 59.3865H549.291V61.3865ZM560.617 66.0152L561.779 67.6427L560.617 66.0152ZM559.73 60.4016L560.528 58.5675L559.73 60.4016ZM552.245 58.235L552.687 56.2843L552.662 56.2788L552.638 56.2738L552.245 58.235ZM542.397 55.5759L541.695 57.4486L542.397 55.5759ZM535.503 50.7502L533.981 52.0481L533.992 52.0608L534.003 52.0734L535.503 50.7502ZM535.306 32.826L536.964 33.945L536.97 33.9355L536.976 33.926L535.306 32.826ZM543.086 26.4246L542.261 24.6026L542.255 24.6056L542.248 24.6086L543.086 26.4246ZM572.632 29.3791L571.33 30.8976L572.632 29.3791ZM579.821 43.3638V45.3638H582.061L581.808 43.138L579.821 43.3638ZM562.389 43.3638L560.423 43.728L560.726 45.3638H562.389V43.3638ZM560.026 39.326L558.745 40.8624L558.791 40.9007L558.839 40.9361L560.026 39.326ZM551.556 38.7351L550.418 37.0907L550.386 37.1123L550.356 37.1351L551.556 38.7351ZM552.639 44.2502L551.776 46.0545L551.809 46.07L551.842 46.0844L552.639 44.2502ZM559.927 46.3184L559.505 48.2734L559.51 48.2745L559.927 46.3184ZM569.874 49.1744L569.131 51.0314L569.139 51.0345L569.147 51.0376L569.874 49.1744ZM576.867 54.2956L575.33 55.576L575.349 55.5991L575.369 55.6217L576.867 54.2956ZM577.063 72.4167L575.459 71.2233L575.449 71.2367L575.439 71.2503L577.063 72.4167ZM569.086 78.5227L569.865 80.3647L569.874 80.3611L569.882 80.3574L569.086 78.5227ZM556.973 78.6894C552.203 78.6894 548.006 77.9053 544.348 76.3811L542.81 80.0734C547.03 81.8321 551.763 82.6894 556.973 82.6894V78.6894ZM544.385 76.3971C540.764 74.8014 537.955 72.6886 535.886 70.0883L532.756 72.5784C535.284 75.7559 538.646 78.239 542.772 80.0575L544.385 76.3971ZM535.917 70.1277C533.917 67.4801 532.809 64.5333 532.574 61.244L528.584 61.529C528.874 65.5931 530.261 69.2776 532.726 72.539L535.917 70.1277ZM530.579 63.3865H549.291V59.3865H530.579V63.3865ZM547.312 61.6796C547.65 63.9548 548.742 65.8301 550.591 67.1503L552.915 63.8953C552.006 63.2459 551.457 62.3636 551.269 61.0934L547.312 61.6796ZM550.591 67.1503C552.372 68.4229 554.508 69.0001 556.874 69.0001V65.0001C555.17 65.0001 553.891 64.5924 552.915 63.8953L550.591 67.1503ZM556.874 69.0001C558.707 69.0001 560.41 68.6204 561.779 67.6427L559.454 64.3878C558.984 64.7232 558.193 65.0001 556.874 65.0001V69.0001ZM561.779 67.6427C563.177 66.6438 563.995 65.206 563.995 63.4546H559.995C559.995 63.8043 559.894 64.0735 559.454 64.3878L561.779 67.6427ZM563.995 63.4546C563.995 62.376 563.691 61.3499 563.035 60.4656C562.396 59.6034 561.51 58.9946 560.528 58.5675L558.933 62.2358C559.46 62.4652 559.708 62.6935 559.823 62.849C559.922 62.9824 559.995 63.1545 559.995 63.4546H563.995ZM560.528 58.5675C558.833 57.8309 556.182 57.0756 552.687 56.2843L551.804 60.1856C555.269 60.9701 557.607 61.6592 558.933 62.2358L560.528 58.5675ZM552.638 56.2738C548.763 55.4988 545.592 54.638 543.099 53.7032L541.695 57.4486C544.455 58.4835 547.849 59.3954 551.853 60.1961L552.638 56.2738ZM543.099 53.7032C540.799 52.8405 538.769 51.4291 537.003 49.4269L534.003 52.0734C536.176 54.5359 538.743 56.3416 541.695 57.4486L543.099 53.7032ZM537.025 49.4523C535.512 47.6784 534.647 45.1663 534.647 41.6896H530.647C530.647 45.829 531.686 49.3573 533.981 52.0481L537.025 49.4523ZM534.647 41.6896C534.647 38.7903 535.423 36.2283 536.964 33.945L533.648 31.7071C531.644 34.6763 530.647 38.0233 530.647 41.6896H534.647ZM536.976 33.926C538.512 31.5946 540.792 29.6863 543.924 28.2405L542.248 24.6086C538.553 26.3142 535.646 28.6737 533.636 31.726L536.976 33.926ZM543.911 28.2465C547.072 26.8154 550.945 26.0609 555.594 26.0609V22.0609C550.525 22.0609 546.061 22.8822 542.261 24.6026L543.911 28.2465ZM555.594 26.0609C562.496 26.0609 567.66 27.7519 571.33 30.8976L573.933 27.8606C569.331 23.9154 563.136 22.0609 555.594 22.0609V26.0609ZM571.33 30.8976C575.055 34.0907 577.23 38.2769 577.834 43.5897L581.808 43.138C581.099 36.8953 578.481 31.7583 573.933 27.8606L571.33 30.8976ZM579.821 41.3638H562.389V45.3638H579.821V41.3638ZM564.356 42.9997C563.951 40.815 562.935 38.9851 561.212 37.7159L558.839 40.9361C559.612 41.5052 560.171 42.3673 560.423 43.728L564.356 42.9997ZM561.306 37.7896C559.663 36.4202 557.551 35.8487 555.2 35.8487V39.8487C556.92 39.8487 558.025 40.2621 558.745 40.8624L561.306 37.7896ZM555.2 35.8487C553.415 35.8487 551.738 36.1768 550.418 37.0907L552.694 40.3795C553.081 40.1116 553.833 39.8487 555.2 39.8487V35.8487ZM550.356 37.1351C549.027 38.1321 548.374 39.566 548.374 41.1972H552.374C552.374 40.7273 552.51 40.5199 552.756 40.3351L550.356 37.1351ZM548.374 41.1972C548.374 43.5053 549.8 45.1094 551.776 46.0545L553.502 42.4459C552.458 41.9466 552.374 41.5153 552.374 41.1972H548.374ZM551.842 46.0844C553.543 46.8241 556.135 47.5465 559.505 48.2734L560.349 44.3633C557.022 43.6458 554.755 42.9894 553.437 42.4161L551.842 46.0844ZM559.51 48.2745C563.449 49.1138 566.646 50.0372 569.131 51.0314L570.617 47.3175C567.85 46.2106 564.416 45.23 560.344 44.3623L559.51 48.2745ZM569.147 51.0376C571.504 51.9573 573.562 53.4545 575.33 55.576L578.403 53.0152C576.231 50.4095 573.628 48.4925 570.601 47.3113L569.147 51.0376ZM575.369 55.6217C576.992 57.454 577.919 60.0815 577.919 63.7501H581.919C581.919 59.4087 580.811 55.7331 578.364 52.9695L575.369 55.6217ZM577.919 63.7501C577.919 66.5411 577.104 69.0108 575.459 71.2233L578.668 73.6101C580.831 70.7015 581.919 67.3934 581.919 63.7501H577.919ZM575.439 71.2503C573.85 73.4628 571.506 75.2924 568.29 76.688L569.882 80.3574C573.626 78.7328 576.6 76.4918 578.688 73.5831L575.439 71.2503ZM568.307 76.6808C565.194 77.9978 561.433 78.6894 556.973 78.6894V82.6894C561.835 82.6894 566.15 81.9365 569.865 80.3647L568.307 76.6808Z" fill="url(#paint0_linear_771_24364)" mask="url(#path-1-outside-1_771_24364)"/>
<defs>
<linearGradient id="paint0_linear_771_24364" x1="0" y1="46" x2="584" y2="46" gradientUnits="userSpaceOnUse">
<stop stop-color="#2475EA"/>
<stop offset="1" stop-color="#01C9D0"/>
</linearGradient>
</defs>
</svg>
